<?xml version="1.0" encoding="UTF-8"?> <svg xmlns="http://www.w3.org/2000/svg" width="20.329" height="20.329" viewBox="0 0 20.329 20.329"><path id="Path_1085" data-name="Path 1085" d="M21.945,5.5H8.362A3.37,3.37,0,0,0,5,8.862V22.467a3.37,3.37,0,0,0,3.362,3.362H21.967a3.37,3.37,0,0,0,3.362-3.362V8.862A3.4,3.4,0,0,0,21.945,5.5Zm1.128,3.362v1.782a1.011,1.011,0,0,1-1.015,1.015H20.185a1.011,1.011,0,0,1-1.015-1.015V8.772a1.011,1.011,0,0,1,1.015-1.015h1.873a1.011,1.011,0,0,1,1.015,1.015Zm-4.061,6.791a3.858,3.858,0,1,1-3.858-3.858A3.857,3.857,0,0,1,19.011,15.653Zm2.933,7.92H8.362a1.131,1.131,0,0,1-1.128-1.128V13.577H9.4a6.266,6.266,0,0,0-.361,2.076,6.1,6.1,0,0,0,12.206,0,6.37,6.37,0,0,0-.361-2.076H23.05v8.867A1.085,1.085,0,0,1,21.945,23.573Z" transform="translate(-5 -5.5)" fill="#eb7025"></path></svg> 