<?xml version="1.0" encoding="UTF-8" standalone="no"?>
<svg width="48px" height="48px" viewBox="0 0 48 48" version="1.1" xmlns="http://www.w3.org/2000/svg" xmlns:xlink="http://www.w3.org/1999/xlink">
    <!-- Generator: Sketch 50 (54983) - http://www.bohemiancoding.com/sketch -->
    <title>Artboard Copy 3</title>
    <desc>Created with Sketch.</desc>
    <defs></defs>
    <g id="Artboard-Copy-3" stroke="none" stroke-width="1" fill="none" fill-rule="evenodd">
        <g id="Group-3">
            <rect id="Rectangle-27" fill="#D8D8D8" opacity="0" x="0" y="0" width="48" height="48"></rect>
            <g id="Group" transform="translate(8.000000, 8.000000)" stroke="#FFFFFF" stroke-width="2">
                <circle id="Oval-3" cx="16" cy="16" r="12.6315789"></circle>
                <g id="Group-2" transform="translate(-2.000000, -2.000000)">
                    <path d="M0,18 C0,27.9411255 8.0588745,36 18,36" id="Oval-3-Copy"></path>
                    <path d="M36,18 C36,8.0588745 27.9411255,0 18,0" id="Oval-3-Copy-2"></path>
                </g>
                <path d="M16.4324554,8.10526316 L16.4324554,10.6768144 L20.0228056,10.6768144 L15.4059478,10.6768144 C13.9899767,10.6768144 12.8421053,11.8246858 12.8421053,13.240657 L12.8421053,13.240657 C12.8421053,14.6566281 13.9899767,15.8044995 15.4059478,15.8044995 L17.492267,15.8044995 C18.8145847,15.8044995 19.8865351,16.8764498 19.8865351,18.1987676 L19.8865351,18.1987676 C19.8865351,19.5210853 18.8145847,20.5930356 17.492267,20.5930356 L12.8421053,20.5930356 L16.4324554,20.5930356 L16.4324554,23.7481862" id="Path-5"></path>
            </g>
        </g>
    </g>
</svg>